<?xml version="1.0" standalone="no"?><!DOCTYPE svg PUBLIC "-//W3C//DTD SVG 1.1//EN" "http://www.w3.org/Graphics/SVG/1.1/DTD/svg11.dtd"><svg t="1596187496039" class="icon" viewBox="0 0 1024 1024" version="1.1" xmlns="http://www.w3.org/2000/svg" p-id="2708" xmlns:xlink="http://www.w3.org/1999/xlink" width="200" height="200"><defs><style type="text/css"></style></defs><path d="M1008.284495 45.432447l-32.090884-32.056817c-17.74878-17.74878-46.501121-17.782846-64.215834-0.068134l-64.454301 64.488368L319.761299 605.558042l-0.068134-0.068134-119.029244 215.506296 215.506296-119.063311-0.034067-0.034067L943.86426 174.13665l64.488368-64.454301C1026.067341 91.933568 1025.999208 63.181227 1008.284495 45.432447zM281.9472 739.678858l29.604011-53.55294 24.085196 23.914862L281.9472 739.678858zM392.016887 677.81363l-72.255588-72.221522 24.051129 24.017063L871.608671 101.881061l47.931925 47.897858c0 0 0 0 0 0l0.272534 0.272534L392.016887 677.81363zM976.193611 93.60284l-32.329351 32.329351-48.170392-48.170392 32.329351-32.329351c8.82329-8.857356 23.233527-8.857356 32.12495 0.034067l16.011375 16.045442C985.050967 70.403379 985.050967 84.77955 976.193611 93.60284z" p-id="2709"></path><path d="M920.801066 955.593955c0 18.838916-15.295973 34.066756-34.066756 34.066756L69.132178 989.66071c-18.804849 0-34.066756-15.22784-34.066756-34.066756l0-817.602133c0-18.838916 15.261906-34.066756 34.066756-34.066756L614.200267 103.925066l0-34.066756L69.132178 69.858311c-37.643765 0-68.133511 30.523813-68.133511 68.133511l0 817.602133c0 37.609698 30.489746 68.133511 68.133511 68.133511l817.602133 0c37.609698 0 68.133511-30.523813 68.133511-68.133511l0-545.068089-34.066756 0L920.801066 955.593955z" p-id="2710"></path></svg>